<?xml version="1.0" encoding="UTF-8"?>
<svg width="400px" height="400px" viewBox="0 0 400 400" version="1.1" xmlns="http://www.w3.org/2000/svg" xmlns:xlink="http://www.w3.org/1999/xlink">
    <title>Transparent Avatar (Circle)</title>
    <defs>
        <circle id="path-1" cx="200" cy="200" r="198"></circle>
    </defs>
    <g id="Transparent-Avatar-(Circle)" stroke="none" stroke-width="1" fill="none" fill-rule="evenodd">
        <mask id="mask-2" fill="white">
            <use xlink:href="#path-1"></use>
        </mask>
        <g id="Circle"></g>
        <g id="编组" mask="url(#mask-2)" fill="#000000">
            <g id="Union-Face">
                <path d="M400,0 L400,400 L0,400 L0,0 L400,0 Z M152,316.932203 C160.489812,325.201291 177.175474,332.246963 195.980481,332.884923 C214.786053,333.522937 231.936965,327.625218 241,319.951636 C227.836213,321.814383 212.332046,323.163292 196.349628,322.621059 C180.36721,322.078827 164.997586,319.682525 152,316.932203 Z M123.954425,121.967188 C93.0662413,120.879317 67.1133663,145.296667 66.0347015,176.460508 C64.9560367,207.624349 89.1574711,233.808784 120.045264,234.897219 C149.24069,235.925466 174.02682,214.167652 177.567062,185.464088 C192.321393,182.952875 207.219053,183.143055 222.026853,186.695764 C222.930783,215.922856 246.623275,239.862779 276.528264,240.897491 C307.6919,241.976331 333.876547,217.774793 334.965013,186.886797 C336.052917,155.998242 311.635408,130.045197 280.471772,128.966916 C250.788901,127.939357 225.623448,149.845987 222.358106,178.620328 C206.344351,175.278301 191.604073,175.319977 177.987472,177.282746 C177.411111,147.510245 153.805271,123.019083 123.954425,121.967188 Z"></path>
            </g>
        </g>
    </g>
</svg>